HIERARCHY
ROOT Hips
{
  OFFSET 0.000000 95.000000 0.000000
  CHANNELS 6 Xposition Yposition Zposition Zrotation Xrotation Yrotation
  JOINT Spine
  {
    OFFSET 0.000000 10.000000 0.000000
    CHANNELS 3 Zrotation Xrotation Yrotation
    JOINT Spine1
    {
      OFFSET 0.000000 12.000000 0.000000
      CHANNELS 3 Zrotation Xrotation Yrotation
      JOINT Spine2
      {
        OFFSET 0.000000 12.000000 0.000000
        CHANNELS 3 Zrotation Xrotation Yrotation
        JOINT Neck
        {
          OFFSET 0.000000 10.000000 0.000000
          CHANNELS 3 Zrotation Xrotation Yrotation
          JOINT Head
          {
            OFFSET 0.000000 8.000000 0.000000
            CHANNELS 3 Zrotation Xrotation Yrotation
            End Site
            {
              OFFSET 0.000000 10.000000 0.000000
            }
          }
        }
        JOINT LeftShoulder
        {
          OFFSET 6.000000 8.000000 0.000000
          CHANNELS 3 Zrotation Xrotation Yrotation
          JOINT LeftArm
          {
            OFFSET 12.000000 0.000000 0.000000
            CHANNELS 3 Zrotation Xrotation Yrotation
            JOINT LeftForeArm
            {
              OFFSET 24.000000 0.000000 0.000000
              CHANNELS 3 Zrotation Xrotation Yrotation
              JOINT LeftHand
              {
                OFFSET 22.000000 0.000000 0.000000
                CHANNELS 3 Zrotation Xrotation Yrotation
                JOINT LeftHandThumb1
                {
                  OFFSET 1.800000 -1.400000 0.500000
                  CHANNELS 3 Zrotation Xrotation Yrotation
                  JOINT LeftHandThumb2
                  {
                    OFFSET 2.400000 0.000000 0.000000
                    CHANNELS 3 Zrotation Xrotation Yrotation
                    JOINT LeftHandThumb3
                    {
                      OFFSET 1.900000 0.000000 0.000000
                      CHANNELS 3 Zrotation Xrotation Yrotation
                      End Site
                      {
                        OFFSET 1.600000 0.000000 0.000000
                      }
                    }
                  }
                }
                JOINT LeftHandIndex1
                {
                  OFFSET 6.600000 1.200000 0.300000
                  CHANNELS 3 Zrotation Xrotation Yrotation
                  JOINT LeftHandIndex2
                  {
                    OFFSET 2.000000 0.000000 0.000000
                    CHANNELS 3 Zrotation Xrotation Yrotation
                    JOINT LeftHandIndex3
                    {
                      OFFSET 1.200000 0.000000 0.000000
                      CHANNELS 3 Zrotation Xrotation Yrotation
                      End Site
                      {
                        OFFSET 1.000000 0.000000 0.000000
                      }
                    }
                  }
                }
                JOINT LeftHandMiddle1
                {
                  OFFSET 7.200000 0.000000 0.300000
                  CHANNELS 3 Zrotation Xrotation Yrotation
                  JOINT LeftHandMiddle2
                  {
                    OFFSET 3.000000 0.000000 0.000000
                    CHANNELS 3 Zrotation Xrotation Yrotation
                    JOINT LeftHandMiddle3
                    {
                      OFFSET 2.000000 0.000000 0.000000
                      CHANNELS 3 Zrotation Xrotation Yrotation
                      End Site
                      {
                        OFFSET 1.600000 0.000000 0.000000
                      }
                    }
                  }
                }
                JOINT LeftHandRing1
                {
                  OFFSET 7.100000 -1.000000 0.400000
                  CHANNELS 3 Zrotation Xrotation Yrotation
                  JOINT LeftHandRing2
                  {
                    OFFSET 2.600000 0.000000 0.000000
                    CHANNELS 3 Zrotation Xrotation Yrotation
                    JOINT LeftHandRing3
                    {
                      OFFSET 1.600000 0.000000 0.000000
                      CHANNELS 3 Zrotation Xrotation Yrotation
                      End Site
                      {
                        OFFSET 1.300000 0.000000 0.000000
                      }
                    }
                  }
                }
                JOINT LeftHandPinky1
                {
                  OFFSET 6.500000 -2.000000 0.500000
                  CHANNELS 3 Zrotation Xrotation Yrotation
                  JOINT LeftHandPinky2
                  {
                    OFFSET 1.900000 0.000000 0.000000
                    CHANNELS 3 Zrotation Xrotation Yrotation
                    JOINT LeftHandPinky3
                    {
                      OFFSET 1.400000 0.000000 0.000000
                      CHANNELS 3 Zrotation Xrotation Yrotation
                      End Site
                      {
                        OFFSET 1.300000 0.000000 0.000000
                      }
                    }
                  }
                }
              }
            }
          }
        }
        JOINT RightShoulder
        {
          OFFSET -6.000000 8.000000 0.000000
          CHANNELS 3 Zrotation Xrotation Yrotation
          JOINT RightArm
          {
            OFFSET -12.000000 0.000000 0.000000
            CHANNELS 3 Zrotation Xrotation Yrotation
            JOINT RightForeArm
            {
              OFFSET -24.000000 0.000000 0.000000
              CHANNELS 3 Zrotation Xrotation Yrotation
              JOINT RightHand
              {
                OFFSET -22.000000 0.000000 0.000000
                CHANNELS 3 Zrotation Xrotation Yrotation
                JOINT RightHandThumb1
                {
                  OFFSET -1.800000 -1.400000 0.500000
                  CHANNELS 3 Zrotation Xrotation Yrotation
                  JOINT RightHandThumb2
                  {
                    OFFSET -2.400000 0.000000 0.000000
                    CHANNELS 3 Zrotation Xrotation Yrotation
                    JOINT RightHandThumb3
                    {
                      OFFSET -1.900000 0.000000 0.000000
                      CHANNELS 3 Zrotation Xrotation Yrotation
                      End Site
                      {
                        OFFSET -1.600000 0.000000 0.000000
                      }
                    }
                  }
                }
                JOINT RightHandIndex1
                {
                  OFFSET -6.600000 1.200000 0.300000
                  CHANNELS 3 Zrotation Xrotation Yrotation
                  JOINT RightHandIndex2
                  {
                    OFFSET -2.000000 0.000000 0.000000
                    CHANNELS 3 Zrotation Xrotation Yrotation
                    JOINT RightHandIndex3
                    {
                      OFFSET -1.200000 0.000000 0.000000
                      CHANNELS 3 Zrotation Xrotation Yrotation
                      End Site
                      {
                        OFFSET -1.000000 0.000000 0.000000
                      }
                    }
                  }
                }
                JOINT RightHandMiddle1
                {
                  OFFSET -7.200000 0.000000 0.300000
                  CHANNELS 3 Zrotation Xrotation Yrotation
                  JOINT RightHandMiddle2
                  {
                    OFFSET -3.000000 0.000000 0.000000
                    CHANNELS 3 Zrotation Xrotation Yrotation
                    JOINT RightHandMiddle3
                    {
                      OFFSET -2.000000 0.000000 0.000000
                      CHANNELS 3 Zrotation Xrotation Yrotation
                      End Site
                      {
                        OFFSET -1.600000 0.000000 0.000000
                      }
                    }
                  }
                }
                JOINT RightHandRing1
                {
                  OFFSET -7.100000 -1.000000 0.400000
                  CHANNELS 3 Zrotation Xrotation Yrotation
                  JOINT RightHandRing2
                  {
                    OFFSET -2.600000 0.000000 0.000000
                    CHANNELS 3 Zrotation Xrotation Yrotation
                    JOINT RightHandRing3
                    {
                      OFFSET -1.600000 0.000000 0.000000
                      CHANNELS 3 Zrotation Xrotation Yrotation
                      End Site
                      {
                        OFFSET -1.300000 0.000000 0.000000
                      }
                    }
                  }
                }
                JOINT RightHandPinky1
                {
                  OFFSET -6.500000 -2.000000 0.500000
                  CHANNELS 3 Zrotation Xrotation Yrotation
                  JOINT RightHandPinky2
                  {
                    OFFSET -1.900000 0.000000 0.000000
                    CHANNELS 3 Zrotation Xrotation Yrotation
                    JOINT RightHandPinky3
                    {
                      OFFSET -1.400000 0.000000 0.000000
                      CHANNELS 3 Zrotation Xrotation Yrotation
                      End Site
                      {
                        OFFSET -1.300000 0.000000 0.000000
                      }
                    }
                  }
                }
              }
            }
          }
        }
      }
    }
  }
  JOINT LeftUpLeg
  {
    OFFSET 10.000000 -5.000000 0.000000
    CHANNELS 3 Zrotation Xrotation Yrotation
    JOINT LeftLeg
    {
      OFFSET 0.000000 -42.000000 0.000000
      CHANNELS 3 Zrotation Xrotation Yrotation
      JOINT LeftFoot
      {
        OFFSET 0.000000 -42.000000 4.000000
        CHANNELS 3 Zrotation Xrotation Yrotation
        End Site
        {
          OFFSET 0.000000 0.000000 12.000000
        }
      }
    }
  }
  JOINT RightUpLeg
  {
    OFFSET -10.000000 -5.000000 0.000000
    CHANNELS 3 Zrotation Xrotation Yrotation
    JOINT RightLeg
    {
      OFFSET 0.000000 -42.000000 0.000000
      CHANNELS 3 Zrotation Xrotation Yrotation
      JOINT RightFoot
      {
        OFFSET 0.000000 -42.000000 4.000000
        CHANNELS 3 Zrotation Xrotation Yrotation
        End Site
        {
          OFFSET 0.000000 0.000000 12.000000
        }
      }
    }
  }
}
MOTION
Frames: 9
Frame Time: 0.033333
0.0000 95.0000 0.0000 0.0000 0.0000 0.0000 0.0000 0.0000 0.0000 0.0000 0.0000 0.0000 0.0000 0.0000 0.0000 0.0000 0.0000 0.0000 0.0000 0.0000 0.0000 0.0000 0.0000 0.0000 -68.8250 -11.1858 -16.2706 -82.7870 77.6835 -180.3726 -146.2799 37.4635 -86.7667 7.7933 38.3351 51.0453 6.8305 0.0000 0.0000 33.9997 0.0000 0.0000 -32.8012 3.3551 17.4546 55.9767 0.0000 0.0000 14.2179 0.0000 0.0000 -15.7164 2.1027 10.3759 70.3643 0.0000 0.0000 8.9387 0.0000 0.0000 -8.1211 5.5992 23.3866 57.2110 0.0000 0.0000 4.7877 0.0000 0.0000 -1.7802 15.6486 44.2062 33.1756 0.0000 0.0000 5.1792 0.0000 0.0000 0.0000 0.0000 0.0000 78.1840 -15.9728 19.5952 -131.3717 79.0193 -45.2991 63.1046 -69.2720 257.5106 -70.4764 -15.1775 33.0816 12.0456 0.0000 0.0000 13.8267 0.0000 0.0000 -8.7684 6.6022 26.5474 32.6473 0.0000 0.0000 14.5563 0.0000 0.0000 -14.1628 2.5581 25.1501 37.8510 0.0000 0.0000 11.8069 0.0000 0.0000 -12.1579 -1.8681 35.0244 28.9232 0.0000 0.0000 9.3510 0.0000 0.0000 -12.7790 -11.4258 53.5515 18.6826 0.0000 0.0000 4.5462 0.0000 0.0000 0.0000 0.0000 0.0000 0.0000 0.0000 0.0000 0.0000 0.0000 0.0000 0.0000 0.0000 0.0000 0.0000 0.0000 0.0000 0.0000 0.0000 0.0000
0.0000 95.0000 0.0000 0.0000 0.0000 0.0000 0.0000 0.0000 0.0000 0.0000 0.0000 0.0000 0.0000 0.0000 0.0000 0.0000 0.0000 0.0000 0.0000 0.0000 0.0000 0.0000 0.0000 0.0000 -68.6922 -10.4947 -15.3094 -58.4392 71.7832 -151.3075 -166.5019 54.9422 -135.7193 -14.0638 32.7517 26.4993 3.2774 0.0000 0.0000 14.2720 0.0000 0.0000 -53.5200 9.1463 22.3437 40.7474 0.0000 0.0000 12.2998 0.0000 0.0000 -36.2401 2.6669 3.3656 64.1453 0.0000 0.0000 1.4863 0.0000 0.0000 -14.3783 3.7669 10.7075 61.8658 0.0000 0.0000 8.0704 0.0000 0.0000 10.0315 7.7306 37.3729 40.1810 0.0000 0.0000 10.9770 0.0000 0.0000 0.0000 0.0000 0.0000 78.5784 -15.0966 18.3993 -110.0007 83.1246 -26.2261 91.1398 -48.4560 258.9492 -80.6825 -10.8942 76.7195 33.4162 0.0000 0.0000 62.6096 0.0000 0.0000 6.9204 4.4911 34.2964 70.9801 0.0000 0.0000 1.0633 0.0000 0.0000 22.4301 -2.8666 19.1565 91.2389 0.0000 0.0000 8.0185 0.0000 0.0000 22.2308 -11.7130 36.9602 71.0493 0.0000 0.0000 13.1322 0.0000 0.0000 11.5001 -24.1099 57.4215 47.0835 0.0000 0.0000 14.7197 0.0000 0.0000 0.0000 0.0000 0.0000 0.0000 0.0000 0.0000 0.0000 0.0000 0.0000 0.0000 0.0000 0.0000 0.0000 0.0000 0.0000 0.0000 0.0000 0.0000
0.0000 95.0000 0.0000 0.0000 0.0000 0.0000 0.0000 0.0000 0.0000 0.0000 0.0000 0.0000 0.0000 0.0000 0.0000 0.0000 0.0000 0.0000 0.0000 0.0000 0.0000 0.0000 0.0000 0.0000 -68.8327 -10.1878 -14.8258 -48.8247 67.0935 -137.2774 -228.1881 66.0295 -196.5710 -3.1648 34.0555 36.3109 17.7244 0.0000 0.0000 43.1820 0.0000 0.0000 -40.6296 6.7993 27.3966 41.4171 0.0000 0.0000 14.1809 0.0000 0.0000 -20.7890 0.7561 -0.6515 67.0727 0.0000 0.0000 10.2665 0.0000 0.0000 -4.3079 4.0178 20.5888 49.2147 0.0000 0.0000 17.0478 0.0000 0.0000 19.8753 4.5633 44.5091 25.4420 0.0000 0.0000 18.4404 0.0000 0.0000 0.0000 0.0000 0.0000 78.7586 -14.5503 17.6811 -88.5583 84.5644 -5.8900 80.9339 -50.9824 275.6524 -38.8398 -34.3860 82.2684 21.2196 0.0000 0.0000 88.4634 0.0000 0.0000 8.7034 6.8167 57.8479 49.1920 0.0000 0.0000 9.4997 0.0000 0.0000 16.9981 -6.3396 45.4412 69.0408 0.0000 0.0000 14.0544 0.0000 0.0000 5.5185 -11.6343 59.0927 53.6029 0.0000 0.0000 13.6073 0.0000 0.0000 0.5892 -22.6789 68.0026 41.7774 0.0000 0.0000 17.0493 0.0000 0.0000 0.0000 0.0000 0.0000 0.0000 0.0000 0.0000 0.0000 0.0000 0.0000 0.0000 0.0000 0.0000 0.0000 0.0000 0.0000 0.0000 0.0000 0.0000
0.0000 95.0000 0.0000 0.0000 0.0000 0.0000 0.0000 0.0000 0.0000 0.0000 0.0000 0.0000 0.0000 0.0000 0.0000 0.0000 0.0000 0.0000 0.0000 0.0000 0.0000 0.0000 0.0000 0.0000 -68.9270 -9.9923 -14.5176 -45.4588 64.3699 -131.4832 -177.9237 70.1629 -154.8352 -27.9642 45.8892 26.7580 26.7541 0.0000 0.0000 69.2462 0.0000 0.0000 -47.2700 12.9107 42.7983 38.6940 0.0000 0.0000 21.7279 0.0000 0.0000 -16.4639 -1.5017 -15.1245 96.3150 0.0000 0.0000 9.3377 0.0000 0.0000 -4.9403 1.1304 4.5767 82.4457 0.0000 0.0000 11.4291 0.0000 0.0000 19.1567 6.9127 56.1034 33.2674 0.0000 0.0000 16.5727 0.0000 0.0000 0.0000 0.0000 0.0000 79.1387 -14.1398 17.0707 -69.0773 84.9841 12.7114 -71.5811 -64.7177 438.2535 -65.5537 -16.1290 39.3364 16.6950 0.0000 0.0000 27.4934 0.0000 0.0000 1.5436 2.8256 16.4088 30.3900 0.0000 0.0000 5.2140 0.0000 0.0000 -1.7285 0.1183 12.6015 41.9738 0.0000 0.0000 11.4334 0.0000 0.0000 -7.3326 -1.4676 13.9644 36.7443 0.0000 0.0000 10.6097 0.0000 0.0000 -19.2060 -3.2833 14.3328 27.0811 0.0000 0.0000 11.8678 0.0000 0.0000 0.0000 0.0000 0.0000 0.0000 0.0000 0.0000 0.0000 0.0000 0.0000 0.0000 0.0000 0.0000 0.0000 0.0000 0.0000 0.0000 0.0000 0.0000
0.0000 95.0000 0.0000 0.0000 0.0000 0.0000 0.0000 0.0000 0.0000 0.0000 0.0000 0.0000 0.0000 0.0000 0.0000 0.0000 0.0000 0.0000 0.0000 0.0000 0.0000 0.0000 0.0000 0.0000 -69.2184 -9.6505 -13.9482 -43.5924 61.5960 -127.3657 -242.5977 54.2624 -218.2218 3.1171 31.9835 39.7624 21.0716 0.0000 0.0000 57.1673 0.0000 0.0000 -37.9126 5.2255 22.7033 37.6265 0.0000 0.0000 15.5497 0.0000 0.0000 -16.2365 -3.3117 -27.6846 84.4784 0.0000 0.0000 11.6333 0.0000 0.0000 -0.7938 -1.3947 -9.7539 70.7479 0.0000 0.0000 16.5450 0.0000 0.0000 26.2865 0.0957 28.4980 31.0483 0.0000 0.0000 18.4908 0.0000 0.0000 0.0000 0.0000 0.0000 79.2260 -13.8711 16.7222 -52.6543 84.3147 28.1648 -70.7273 -58.4128 440.2229 -65.5613 -15.8603 35.2173 16.6297 0.0000 0.0000 23.9717 0.0000 0.0000 7.3985 1.5908 10.8898 35.2289 0.0000 0.0000 7.9873 0.0000 0.0000 -2.8744 0.1156 9.3789 41.4131 0.0000 0.0000 11.6977 0.0000 0.0000 -9.4603 -1.0826 9.7233 36.1748 0.0000 0.0000 11.2507 0.0000 0.0000 -19.9500 -2.4384 7.8267 28.4589 0.0000 0.0000 12.7874 0.0000 0.0000 0.0000 0.0000 0.0000 0.0000 0.0000 0.0000 0.0000 0.0000 0.0000 0.0000 0.0000 0.0000 0.0000 0.0000 0.0000 0.0000 0.0000 0.0000
0.0000 95.0000 0.0000 0.0000 0.0000 0.0000 0.0000 0.0000 0.0000 0.0000 0.0000 0.0000 0.0000 0.0000 0.0000 0.0000 0.0000 0.0000 0.0000 0.0000 0.0000 0.0000 0.0000 0.0000 -69.4898 -9.6070 -13.8163 -42.0666 60.3183 -124.0943 -201.6389 69.8594 -178.3909 -12.3826 46.3738 39.6149 21.1985 0.0000 0.0000 28.5141 0.0000 0.0000 -42.1000 10.5292 42.7440 36.8125 0.0000 0.0000 8.0278 0.0000 0.0000 -22.3246 -0.4310 -6.9561 88.7664 0.0000 0.0000 5.5224 0.0000 0.0000 -7.0263 2.8754 12.0099 74.6820 0.0000 0.0000 12.1125 0.0000 0.0000 20.6055 5.2751 51.6325 35.1666 0.0000 0.0000 14.8750 0.0000 0.0000 0.0000 0.0000 0.0000 79.2501 -13.6967 16.5059 -43.6118 83.6804 36.5556 -96.5686 -71.3004 466.8074 -55.9212 -19.1375 48.7735 15.6075 0.0000 0.0000 20.6208 0.0000 0.0000 11.0459 2.2233 20.6541 38.0069 0.0000 0.0000 7.2776 0.0000 0.0000 3.7041 -0.2945 13.8605 49.9179 0.0000 0.0000 11.5223 0.0000 0.0000 -3.9082 -2.1357 18.0737 41.5314 0.0000 0.0000 12.2945 0.0000 0.0000 -14.3756 -5.0770 23.0646 29.9513 0.0000 0.0000 12.3602 0.0000 0.0000 0.0000 0.0000 0.0000 0.0000 0.0000 0.0000 0.0000 0.0000 0.0000 0.0000 0.0000 0.0000 0.0000 0.0000 0.0000 0.0000 0.0000 0.0000
0.0000 95.0000 0.0000 0.0000 0.0000 0.0000 0.0000 0.0000 0.0000 0.0000 0.0000 0.0000 0.0000 0.0000 0.0000 0.0000 0.0000 0.0000 0.0000 0.0000 0.0000 0.0000 0.0000 0.0000 -69.5128 -9.4174 -13.5392 -40.9254 58.9736 -121.7170 -119.7284 47.8043 -95.9170 -66.1485 41.9500 0.6175 39.2629 0.0000 0.0000 66.2818 0.0000 0.0000 -52.4824 22.5681 62.6833 49.6425 0.0000 0.0000 15.6834 0.0000 0.0000 -18.0036 1.2593 3.1649 110.0000 0.0000 0.0000 9.0212 0.0000 0.0000 -10.1866 5.8369 22.0277 106.5193 0.0000 0.0000 9.6025 0.0000 0.0000 22.0008 10.6102 86.5292 44.6702 0.0000 0.0000 8.4412 0.0000 0.0000 0.0000 0.0000 0.0000 79.4550 -13.5267 16.2434 -34.4390 82.8784 44.8286 -207.3559 -60.2260 565.4769 -29.7511 -32.7749 66.2806 18.7461 0.0000 0.0000 11.8439 0.0000 0.0000 29.8543 -2.1821 41.8545 45.2685 0.0000 0.0000 6.1905 0.0000 0.0000 23.9592 -2.0189 14.2660 74.4252 0.0000 0.0000 11.9271 0.0000 0.0000 19.9065 -8.6678 30.0625 54.9288 0.0000 0.0000 14.1487 0.0000 0.0000 17.7262 -21.7035 46.8526 31.7611 0.0000 0.0000 11.2760 0.0000 0.0000 0.0000 0.0000 0.0000 0.0000 0.0000 0.0000 0.0000 0.0000 0.0000 0.0000 0.0000 0.0000 0.0000 0.0000 0.0000 0.0000 0.0000 0.0000
0.0000 95.0000 0.0000 0.0000 0.0000 0.0000 0.0000 0.0000 0.0000 0.0000 0.0000 0.0000 0.0000 0.0000 0.0000 0.0000 0.0000 0.0000 0.0000 0.0000 0.0000 0.0000 0.0000 0.0000 -69.8194 -9.3726 -13.3991 -40.1057 58.5863 -119.9171 -128.9423 51.4976 -108.4273 -66.6137 44.9333 1.4557 33.1221 0.0000 0.0000 64.2994 0.0000 0.0000 -53.7511 25.0011 66.3631 41.2641 0.0000 0.0000 12.8283 0.0000 0.0000 -25.9033 4.6452 15.2318 98.7279 0.0000 0.0000 5.4937 0.0000 0.0000 -9.0073 10.6462 42.6147 77.3598 0.0000 0.0000 5.2691 0.0000 0.0000 20.2508 13.5817 90.4513 34.9181 0.0000 0.0000 9.8613 0.0000 0.0000 0.0000 0.0000 0.0000 79.7531 -13.2083 15.7800 -28.2643 82.0202 50.2858 -227.3957 -49.5686 575.1902 -27.2018 -36.9289 73.2783 23.9714 0.0000 0.0000 7.1145 0.0000 0.0000 35.4371 -5.2703 49.9969 50.3708 0.0000 0.0000 5.9031 0.0000 0.0000 30.3774 -1.2281 9.2935 90.3893 0.0000 0.0000 12.5172 0.0000 0.0000 29.9451 -11.6409 31.4042 63.9496 0.0000 0.0000 14.9183 0.0000 0.0000 33.7874 -33.3337 53.2214 31.8164 0.0000 0.0000 10.7209 0.0000 0.0000 0.0000 0.0000 0.0000 0.0000 0.0000 0.0000 0.0000 0.0000 0.0000 0.0000 0.0000 0.0000 0.0000 0.0000 0.0000 0.0000 0.0000 0.0000
0.0000 95.0000 0.0000 0.0000 0.0000 0.0000 0.0000 0.0000 0.0000 0.0000 0.0000 0.0000 0.0000 0.0000 0.0000 0.0000 0.0000 0.0000 0.0000 0.0000 0.0000 0.0000 0.0000 0.0000 -69.8853 -9.4197 -13.4498 -40.0462 56.8808 -118.4717 -158.7177 51.6392 -143.4319 -58.9993 44.9106 5.8312 23.7556 0.0000 0.0000 61.8190 0.0000 0.0000 -58.9891 27.0964 62.6020 30.8956 0.0000 0.0000 7.4400 0.0000 0.0000 -38.7145 20.3627 49.3801 36.7973 0.0000 0.0000 5.0329 0.0000 0.0000 -7.2621 17.6591 70.4284 29.4177 0.0000 0.0000 7.7958 0.0000 0.0000 11.0286 21.9941 85.0945 23.9464 0.0000 0.0000 13.7269 0.0000 0.0000 0.0000 0.0000 0.0000 79.9012 -12.8748 15.3432 -21.1657 81.0735 56.6827 -92.4169 -69.3918 481.4734 -50.6944 -19.9613 46.3459 12.0118 0.0000 0.0000 18.1320 0.0000 0.0000 29.0938 1.2097 1.0855 55.5302 0.0000 0.0000 12.6880 0.0000 0.0000 14.2288 0.4885 0.8596 64.0152 0.0000 0.0000 10.8628 0.0000 0.0000 2.5999 -2.0824 13.6112 51.4914 0.0000 0.0000 10.5864 0.0000 0.0000 -18.2552 -6.0815 33.7707 27.3409 0.0000 0.0000 9.2526 0.0000 0.0000 0.0000 0.0000 0.0000 0.0000 0.0000 0.0000 0.0000 0.0000 0.0000 0.0000 0.0000 0.0000 0.0000 0.0000 0.0000 0.0000 0.0000 0.0000
